<?xml version="1.0" encoding="utf-8"?>
<!-- Generator: Adobe Illustrator 19.2.1, SVG Export Plug-In . SVG Version: 6.00 Build 0)  -->
<svg version="1.1" id="Capa_1" xmlns="http://www.w3.org/2000/svg" xmlns:xlink="http://www.w3.org/1999/xlink" x="0px" y="0px"
	 width="80px" height="80px" viewBox="0 0 80 80" style="enable-background:new 0 0 80 80;" xml:space="preserve">
<style type="text/css">
	.st0{clip-path:url(#SVGID_11_);fill:url(#SVGID_12_);}
	.st1{fill:#010202;}
	.st2{clip-path:url(#SVGID_13_);fill:url(#SVGID_14_);}
	.st3{clip-path:url(#SVGID_15_);fill:url(#SVGID_16_);}
	.st4{clip-path:url(#SVGID_17_);fill:url(#SVGID_18_);}
	.st5{clip-path:url(#SVGID_19_);fill:url(#SVGID_20_);}
	.st6{clip-path:url(#SVGID_21_);fill:url(#SVGID_22_);}
	.st7{clip-path:url(#SVGID_23_);fill:url(#SVGID_24_);}
	.st8{clip-path:url(#SVGID_25_);fill:url(#SVGID_26_);}
	.st9{clip-path:url(#SVGID_27_);fill:url(#SVGID_28_);}
	.st10{clip-path:url(#SVGID_29_);fill:url(#SVGID_30_);}
</style>
<g>
	<g>
		<defs>
			<path id="SVGID_4_" d="M42.5,28.2c0,0.1-0.1,0.2-0.3,0.2H31l9.1,6.6c0.1,0.1,0.2,0.1,0.3,0c2.5-1.5,4.8-2.7,9.4-3.8
				c-4.3,3.3-8.5,7.1-11.9,11.4c-0.1,0.1-0.1,0.2-0.2,0.4l-1,3.1l9.1-6.6c0.1-0.1,0.2-0.1,0.4,0l9.1,6.6l-3.5-10.8
				c0-0.1,0-0.2,0.1-0.3l9.1-6.6H49.8c-0.1,0-0.2-0.1-0.3-0.2L46,17.5L42.5,28.2z"/>
		</defs>
		<clipPath id="SVGID_11_">
			<use xlink:href="#SVGID_4_"  style="overflow:visible;"/>
		</clipPath>
		
			<linearGradient id="SVGID_12_" gradientUnits="userSpaceOnUse" x1="-918.7678" y1="580.0562" x2="-918.6359" y2="580.0562" gradientTransform="matrix(142.217 -169.4876 -169.4876 -142.217 229011.875 -73181.1641)">
			<stop  offset="0" style="stop-color:#E72863"/>
			<stop  offset="0.28" style="stop-color:#E72863"/>
			<stop  offset="0.78" style="stop-color:#EF7C26"/>
			<stop  offset="1" style="stop-color:#EF7C26"/>
		</linearGradient>
		<polygon class="st0" points="16.9,34.2 43.4,2.7 75.1,29.3 48.6,60.8 		"/>
	</g>
	<path class="st1" d="M67.3,25.5h3.1c1.8,0,3,1,3,2.6c0,1.8-1.2,3-3,3h-3.1V25.5z M72.5,34.7c3.2-0.4,5.8-3.1,5.8-6.6
		c0-4.5-3.1-7-8-7h-8v22.6h4.9v-9.1l6.1,9.1H79L72.5,34.7z"/>
	<polygon class="st1" points="18,21.2 18,25.6 23,25.6 23,43.8 28,43.8 28,25.6 32.9,25.6 32.9,21.2 	"/>
	<path class="st1" d="M8.8,29.5c-1.5-0.7-2-1.4-2-2.4c0-1.1,0.9-2,2.4-2c1.3,0,2.3,0.7,3,2.4l4.2-1.9c-1.2-3-3.6-4.8-7.4-4.8
		c-4.1,0-7.1,2.7-7.1,6.3c0,2.5,1.2,4.4,4.1,5.9l3.2,1.6c1.8,0.9,2.6,1.5,2.6,2.8c0,1.4-1.1,2.4-2.6,2.4c-1.6,0-3-0.9-3.7-2.9
		L1,38.3c1,3.7,4.1,5.9,8.1,5.9c4.3,0,7.6-2.8,7.6-6.7c0-3.1-1.7-5.1-4.8-6.5L8.8,29.5z"/>
	<path class="st1" d="M13.7,55.6c-0.4-0.5-1-0.7-1.7-0.7c-1.5,0-2.6,1.2-2.6,2.9c0,1.7,1.1,2.9,2.6,2.9c0.8,0,1.5-0.4,1.9-1l1.7,1.2
		c-0.8,1.1-2,1.6-3.3,1.6c-2.8,0-4.9-1.9-4.9-4.8c0-2.9,2.1-4.8,4.9-4.8c1,0,2.3,0.3,3.1,1.3L13.7,55.6z"/>
	<polygon class="st1" points="17.3,53.3 19.3,53.3 19.3,56.6 23.2,56.6 23.2,53.3 25.2,53.3 25.2,62.3 23.2,62.3 23.2,58.4 
		19.3,58.4 19.3,62.3 17.3,62.3 	"/>
	<path class="st1" d="M30.7,53.3h1.6l3.9,9h-2.2l-0.8-1.9h-3.5L29,62.3h-2.2L30.7,53.3z M31.5,55.9l-1.1,2.8h2.2L31.5,55.9z"/>
	<polygon class="st1" points="38,53.3 40.7,53.3 44.5,59.5 44.6,59.5 44.6,53.3 46.6,53.3 46.6,62.3 44,62.3 40,55.9 40,55.9 
		40,62.3 38,62.3 	"/>
	<polygon class="st1" points="49.2,53.3 51.9,53.3 55.7,59.5 55.7,59.5 55.7,53.3 57.7,53.3 57.7,62.3 55.1,62.3 51.2,55.9 
		51.2,55.9 51.2,62.3 49.2,62.3 	"/>
	<polygon class="st1" points="60.4,53.3 66.6,53.3 66.6,55.1 62.4,55.1 62.4,56.8 66.3,56.8 66.3,58.6 62.4,58.6 62.4,60.5 
		66.8,60.5 66.8,62.3 60.4,62.3 	"/>
	<polygon class="st1" points="69.2,53.3 71.2,53.3 71.2,60.5 74.9,60.5 74.9,62.3 69.2,62.3 	"/>
</g>
</svg>
